<?xml version="1.0" encoding="UTF-8"?> <!-- icon666.com - MILLIONS vector ICONS FREE --> <svg xmlns="http://www.w3.org/2000/svg" viewBox="0 0 492 492"> <g id="Layer_2"> <path clip-rule="evenodd" d="m246.26.98c135.21 0 245.76 110.549 245.76 245.76 0 135.21-110.549 245.76-245.76 245.76-135.21 0-245.76-110.55-245.76-245.76 0-135.21 110.55-245.76 245.76-245.76z" fill="#f4511e" fill-rule="evenodd"></path> </g> <g id="Layer_1"> <g clip-rule="evenodd" fill="#fffffe" fill-rule="evenodd"> <path d="m342.979 250.06-5.843 13.681c-1.759 4.121-6.543 6.041-10.661 4.282l-12.67-5.409 8.748-20.485 13.461 5.747c2.27.971 4.603 1.699 6.965 2.184z"></path> <path d="m338.335 242.446c2.896 1.237 5.913 2.004 8.96 2.296.114.003.229.012.343.031h.002c4.625.394 9.31-.297 13.741-2.077 7.464-2.998 13.312-8.722 16.471-16.119l2.749-6.438c.161-.374-.014-.81-.389-.969l-171.064-73.045c-1.027-.438-2.109-.656-3.19-.656-1.022 0-2.049.196-3.027.59-2.014.809-3.591 2.352-4.443 4.347l-8.482 19.869c-.852 1.993-.877 4.201-.068 6.216.809 2.014 2.352 3.591 4.347 4.443zm7.509-17.372c-1.032 2.415-3.834 3.54-6.249 2.511-2.415-1.032-3.54-3.834-2.509-6.249.772-1.808 2.534-2.893 4.385-2.893.625 0 1.255.124 1.865.382 1.808.772 2.891 2.534 2.891 4.387 0 .621-.124 1.253-.383 1.862z"></path> <path d="m188.734 225.924c-1.995-.852-3.54-2.431-4.349-4.443-.808-2.014-.784-4.223.068-6.218l11.594-27.15 121.074 51.699-11.594 27.149c-.851 1.995-2.429 3.54-4.443 4.349-.978.394-2.004.59-3.026.59-1.083 0-2.163-.22-3.19-.658z"></path> <path d="m248.395 257.823-37.688 37.69c-1.585 1.585-3.694 2.459-5.937 2.459h-38.546v-21.275h27.288c3.822 0 7.413-1.488 10.115-4.19l23.686-23.686z"></path> <path d="m139.042 255.077h21.275v64.517h-21.275z"></path> <path d="m133.133 231.09v112.49c0 2.445-1.986 4.431-4.431 4.431h-16.842v-121.352h16.842c2.445 0 4.431 1.988 4.431 4.431z"></path> </g> </g> </svg> 